<?xml version="1.0" standalone="no"?>
<!DOCTYPE svg PUBLIC "-//W3C//DTD SVG 20010904//EN"
 "http://www.w3.org/TR/2001/REC-SVG-20010904/DTD/svg10.dtd">
<svg version="1.0" xmlns="http://www.w3.org/2000/svg"
 width="1080.000000pt" height="270.000000pt" viewBox="0 0 1080.000000 270.000000"
 preserveAspectRatio="xMidYMid meet">

<g transform="translate(0.000000,270.000000) scale(0.100000,-0.100000)"
fill="#000000" stroke="none">
<path d="M0 1350 l0 -1350 594 0 595 0 22 32 c12 18 16 27 9 21 -11 -10 -109
-13 -417 -13 -352 0 -403 2 -403 15 0 13 53 15 418 15 l419 0 156 235 157 235
-370 0 c-322 0 -370 2 -370 15 0 13 49 15 380 15 l380 0 126 192 c70 106 129
199 131 206 4 9 -67 12 -336 12 -296 0 -341 2 -341 15 0 13 46 15 355 15 l355
0 110 165 c60 90 110 169 110 175 0 7 -107 10 -315 10 -273 0 -315 2 -315 15
0 13 44 15 333 15 l332 1 92 139 c51 77 93 144 93 150 0 6 -104 10 -295 10
-256 0 -295 2 -295 15 0 13 41 15 313 15 l312 0 80 121 c44 67 82 125 83 130
2 5 -121 9 -277 9 -243 0 -281 2 -281 15 0 13 39 15 294 15 l293 0 71 108 72
107 -260 3 c-252 2 -260 3 -260 22 0 19 7 20 275 20 l274 0 61 90 c33 49 60
94 60 100 0 7 -82 10 -245 10 -211 0 -245 2 -245 15 0 13 36 15 263 16 l262 0
60 94 c56 88 72 105 88 89 3 -4 -21 -46 -54 -95 l-60 -89 247 2 247 3 48 90
c27 49 52 91 58 93 25 8 17 -23 -25 -102 l-46 -86 247 2 247 3 36 90 c42 107
36 97 54 90 13 -5 10 -19 -18 -86 -19 -45 -34 -85 -34 -90 0 -5 102 -9 244 -9
l243 0 26 91 c29 100 33 107 47 93 9 -9 -3 -62 -35 -163 -6 -21 -6 -21 243
-21 l249 0 13 95 c8 62 17 94 24 92 13 -4 14 -59 2 -134 l-8 -53 245 0 245 0
6 31 c3 17 6 58 6 90 0 46 3 59 15 59 12 0 15 -17 15 -90 l0 -90 246 0 246 0
-7 68 c-3 37 -8 77 -10 88 -6 27 22 41 29 16 3 -9 8 -52 12 -94 l6 -78 250 0
c233 0 249 1 244 18 -21 73 -36 147 -32 158 12 31 25 9 45 -81 l22 -95 245 0
c134 0 244 4 244 8 0 5 -13 45 -30 90 -19 53 -26 83 -19 88 16 9 23 -3 54 -91
16 -44 31 -83 35 -88 3 -4 115 -6 248 -5 l243 3 -41 84 c-28 57 -38 87 -31 94
14 14 11 17 65 -90 l46 -93 245 0 245 0 -55 87 c-30 50 -50 92 -45 97 14 14
24 2 81 -93 l54 -91 263 0 c226 0 262 -2 262 -15 0 -13 -34 -15 -243 -15 -134
0 -246 -3 -249 -6 -4 -3 20 -47 51 -97 l58 -92 277 -3 c268 -2 276 -3 276 -22
0 -19 -7 -20 -260 -20 -143 0 -260 -2 -260 -5 0 -2 29 -51 64 -107 l63 -103
292 -3 c249 -2 291 -4 291 -17 0 -13 -38 -15 -275 -15 -214 0 -275 -3 -274
-12 0 -7 33 -65 73 -128 l73 -115 311 -3 c268 -2 312 -4 312 -17 0 -13 -41
-15 -295 -15 -181 0 -295 -4 -295 -10 0 -5 39 -72 86 -150 l87 -140 328 0
c286 0 329 -2 329 -15 0 -13 -42 -15 -315 -15 -173 0 -315 -3 -315 -6 0 -4 46
-82 103 -175 l102 -168 358 -1 c309 0 357 -2 357 -15 0 -13 -48 -15 -345 -17
l-345 -3 123 -200 124 -200 381 -3 c329 -2 382 -4 382 -17 0 -13 -52 -15 -369
-17 l-370 -3 166 -267 165 -268 544 0 544 0 0 1350 0 1350 -5400 0 -5400 0 0
-1350z m10500 -1295 c0 -13 -52 -15 -404 -15 -350 0 -405 2 -410 15 -5 13 44
15 404 15 358 0 410 -2 410 -15z"/>
<path d="M2812 2383 c-32 -49 -62 -94 -66 -100 -6 -10 47 -13 252 -13 l259 0
50 93 c28 50 48 95 46 100 -2 4 -112 7 -243 7 l-239 0 -59 -87z"/>
<path d="M3351 2376 c-28 -51 -51 -96 -51 -100 0 -3 116 -6 258 -6 l259 0 36
93 c20 51 37 96 37 100 0 4 -110 7 -244 7 l-245 0 -50 -94z"/>
<path d="M3911 2418 c-13 -29 -31 -74 -42 -101 l-19 -47 262 2 262 3 27 92
c14 51 24 95 21 98 -3 3 -114 5 -247 5 l-242 0 -22 -52z"/>
<path d="M4436 2377 c-14 -51 -26 -96 -26 -100 0 -4 117 -7 259 -7 l259 0 6
28 c7 33 26 154 26 165 0 4 -112 7 -249 7 l-248 0 -27 -93z"/>
<path d="M4994 2456 c-3 -8 -11 -53 -18 -100 l-13 -86 264 0 263 0 0 100 0
100 -245 0 c-200 0 -247 -3 -251 -14z"/>
<path d="M5527 2464 c-4 -4 -7 -49 -7 -101 l0 -93 263 0 263 0 -11 98 -10 97
-246 3 c-135 1 -248 -1 -252 -4z"/>
<path d="M6065 2388 c3 -46 9 -91 11 -100 5 -17 26 -18 265 -18 201 0 259 3
258 13 0 6 -11 50 -22 97 l-22 85 -249 3 -248 2 7 -82z"/>
<path d="M6594 2448 c3 -13 13 -58 23 -100 l16 -78 263 0 263 0 -34 95 c-19
53 -35 98 -35 100 0 3 -113 5 -251 5 l-251 0 6 -22z"/>
<path d="M7130 2456 c0 -8 14 -53 31 -100 l32 -86 258 0 c143 0 259 2 259 5 0
3 -21 48 -47 100 l-48 95 -242 0 c-202 0 -243 -2 -243 -14z"/>
<path d="M7660 2465 c0 -3 20 -48 44 -100 l45 -95 261 0 262 0 -16 25 c-9 13
-37 58 -62 100 l-45 75 -245 0 c-134 0 -244 -2 -244 -5z"/>
<path d="M2640 2125 c-38 -57 -70 -107 -70 -110 0 -3 123 -5 274 -5 l274 0 56
105 c31 57 56 107 56 110 0 3 -117 5 -260 5 l-260 0 -70 -105z"/>
<path d="M3216 2125 c-31 -57 -56 -107 -56 -110 0 -3 124 -4 276 -3 l276 3 43
108 43 107 -263 0 -263 0 -56 -105z"/>
<path d="M3792 2128 c-23 -57 -42 -106 -42 -110 0 -5 124 -8 275 -8 l274 0 21
73 c12 39 25 85 31 101 5 16 9 33 9 37 0 5 -118 9 -263 9 l-264 0 -41 -102z"/>
<path d="M4364 2120 l-31 -110 278 0 279 0 4 23 c10 48 26 155 26 175 l0 22
-262 0 -263 0 -31 -110z"/>
<path d="M4955 2218 c-2 -7 -10 -57 -18 -110 l-14 -98 277 0 277 0 7 77 c3 42
6 91 6 110 l0 33 -265 0 c-204 0 -267 -3 -270 -12z"/>
<path d="M5520 2166 c0 -35 -3 -84 -6 -110 l-7 -46 283 0 283 0 -7 73 c-4 39
-10 89 -13 110 l-6 37 -263 0 -264 0 0 -64z"/>
<path d="M6084 2198 c3 -18 8 -68 12 -110 l7 -78 278 0 c154 0 279 3 279 8 0
4 -11 52 -24 107 l-23 100 -267 3 -268 2 6 -32z"/>
<path d="M6650 2218 c0 -7 10 -57 22 -110 l22 -98 279 0 c219 0 278 3 274 13
-2 6 -19 56 -38 109 l-34 98 -262 0 c-203 0 -263 -3 -263 -12z"/>
<path d="M7210 2226 c0 -10 72 -202 79 -209 4 -4 130 -6 279 -5 l273 3 -53
108 -52 107 -263 0 c-145 0 -263 -2 -263 -4z"/>
<path d="M7825 2120 l55 -110 276 0 276 0 -14 23 c-8 12 -39 61 -68 110 l-53
87 -264 0 -263 0 55 -110z"/>
<path d="M2461 1857 c-44 -67 -81 -126 -81 -130 0 -4 132 -6 292 -5 l293 3 62
115 c34 63 62 121 63 128 0 9 -61 12 -274 12 l-273 0 -82 -123z"/>
<path d="M3133 1968 c-5 -7 -38 -66 -72 -131 l-62 -117 297 2 296 3 49 119
c27 65 49 123 49 127 0 5 -123 9 -274 9 -207 0 -276 -3 -283 -12z"/>
<path d="M3681 1856 c-28 -69 -51 -127 -51 -130 0 -3 133 -6 295 -6 l294 0 10
38 c6 20 22 75 35 121 14 47 23 88 20 93 -3 4 -128 8 -279 8 l-273 0 -51 -124z"/>
<path d="M4327 1973 c-3 -5 -19 -57 -36 -118 -18 -60 -34 -116 -36 -122 -3
-10 60 -13 294 -13 l298 0 17 104 c9 58 16 116 16 130 l0 26 -274 0 c-151 0
-277 -3 -279 -7z"/>
<path d="M4916 1953 c-6 -30 -36 -220 -36 -228 0 -3 135 -5 300 -5 l300 0 0
130 0 130 -279 0 -279 0 -6 -27z"/>
<path d="M5517 1973 c-4 -3 -7 -62 -7 -130 l0 -123 296 0 296 0 -7 83 c-4 45
-10 102 -14 127 l-6 45 -276 3 c-151 1 -278 -1 -282 -5z"/>
<path d="M6113 1928 c3 -29 9 -88 13 -130 l7 -78 299 0 c280 0 299 1 294 18
-2 9 -14 60 -26 112 -11 52 -23 103 -26 113 -5 16 -27 17 -286 17 l-281 0 6
-52z"/>
<path d="M6713 1944 c4 -20 16 -79 28 -130 l21 -94 298 0 298 0 -44 121 c-24
66 -46 124 -49 130 -4 5 -121 9 -282 9 l-276 0 6 -36z"/>
<path d="M7307 1973 c-3 -5 15 -63 40 -130 l45 -123 294 0 c162 0 294 2 294 5
0 3 -28 61 -62 130 l-63 125 -272 0 c-149 0 -274 -3 -276 -7z"/>
<path d="M7900 1974 c0 -3 27 -62 59 -130 l60 -124 296 0 c279 0 295 1 286 18
-6 9 -41 67 -79 127 l-68 110 -277 3 c-152 1 -277 0 -277 -4z"/>
<path d="M2257 1545 c-54 -80 -97 -147 -97 -150 0 -3 141 -5 313 -5 l312 0 78
144 c42 80 77 147 77 150 0 3 -132 6 -293 6 l-294 0 -96 -145z"/>
<path d="M2902 1540 l-80 -150 317 0 317 0 57 140 c31 77 57 145 57 150 0 6
-107 10 -294 10 l-294 0 -80 -150z"/>
<path d="M3552 1540 l-60 -150 317 0 318 0 40 143 c22 78 38 145 36 150 -2 4
-136 7 -297 7 l-294 0 -60 -150z"/>
<path d="M4240 1668 c-5 -13 -23 -72 -40 -133 -17 -60 -33 -118 -36 -127 -5
-17 14 -18 314 -18 l320 0 17 113 c9 61 19 129 22 150 l6 37 -297 0 -296 0
-10 -22z"/>
<path d="M4875 1678 c-4 -11 -45 -272 -45 -284 0 -2 144 -4 320 -4 l320 0 0
150 0 150 -295 0 c-228 0 -297 -3 -300 -12z"/>
<path d="M5506 1653 c-3 -21 -6 -89 -6 -150 l0 -113 321 0 321 0 -6 28 c-3 15
-10 79 -17 142 -6 63 -13 118 -16 123 -2 4 -136 7 -297 7 l-293 0 -7 -37z"/>
<path d="M6140 1673 c0 -10 7 -76 15 -148 8 -71 15 -131 15 -132 0 -2 143 -3
319 -3 l318 0 -32 138 c-17 76 -35 144 -39 150 -5 9 -85 12 -302 12 -273 0
-294 -1 -294 -17z"/>
<path d="M6778 1685 c-4 -5 25 -146 57 -272 l5 -23 319 0 319 0 -54 147 c-30
81 -54 148 -54 150 0 5 -586 3 -592 -2z"/>
<path d="M7410 1681 c0 -7 74 -221 95 -273 7 -17 31 -18 321 -18 173 0 314 2
314 4 0 2 -31 70 -69 150 l-70 146 -295 0 c-164 0 -296 -4 -296 -9z"/>
<path d="M8040 1686 c0 -3 32 -70 72 -150 l71 -146 314 0 c172 0 313 2 313 5
0 2 -40 69 -89 147 l-88 143 -297 3 c-163 1 -296 0 -296 -2z"/>
<path d="M2021 1192 c-61 -92 -111 -171 -111 -175 0 -4 151 -6 336 -5 l337 3
88 164 c49 90 89 168 89 173 0 4 -141 8 -314 8 l-313 0 -112 -168z"/>
<path d="M2796 1338 c-8 -13 -51 -90 -95 -173 l-81 -150 337 -3 c185 -1 340 1
344 5 6 8 139 330 139 338 0 3 -142 5 -315 5 l-315 0 -14 -22z"/>
<path d="M3477 1353 c-8 -13 -137 -332 -137 -338 0 -3 153 -5 340 -5 l339 0
20 68 c42 142 71 252 71 266 0 14 -37 16 -314 16 -173 0 -317 -3 -319 -7z"/>
<path d="M4146 1343 c-26 -89 -86 -312 -86 -321 0 -9 87 -12 340 -12 l339 0 6
33 c11 63 45 292 45 305 0 9 -70 12 -319 12 -296 0 -320 -1 -325 -17z"/>
<path d="M4827 1353 c-3 -5 -14 -73 -26 -153 -12 -80 -24 -155 -26 -167 l-5
-23 343 0 344 0 6 167 c3 93 3 171 0 175 -6 10 -630 10 -636 1z"/>
<path d="M5497 1248 c-4 -62 -7 -141 -7 -175 l0 -63 339 0 c187 0 342 3 344 8
2 4 -4 79 -14 167 -10 88 -18 163 -18 168 -1 4 -144 7 -319 7 l-319 0 -6 -112z"/>
<path d="M6179 1355 c-3 -2 3 -78 12 -167 10 -90 18 -166 18 -170 1 -5 154 -8
341 -8 279 0 340 2 340 14 0 17 -70 318 -76 328 -5 8 -627 11 -635 3z"/>
<path d="M6850 1354 c0 -8 58 -258 71 -306 l10 -38 339 0 c187 0 340 3 340 6
0 4 -28 83 -61 175 l-62 169 -318 0 c-176 0 -319 -3 -319 -6z"/>
<path d="M7530 1349 c0 -15 110 -322 119 -332 4 -4 159 -6 344 -5 l337 3 -84
173 -85 172 -316 0 c-224 0 -315 -3 -315 -11z"/>
<path d="M8207 1354 c-3 -4 32 -82 79 -175 l84 -169 335 0 c184 0 335 4 335 8
0 9 -180 302 -200 327 -11 13 -58 15 -320 15 -168 0 -309 -3 -313 -6z"/>
<path d="M1750 785 c-71 -107 -130 -199 -130 -205 0 -16 715 -14 728 3 12 15
212 385 212 392 0 3 -153 5 -340 5 l-340 0 -130 -195z"/>
<path d="M2501 793 c-55 -104 -103 -196 -107 -206 -6 -16 14 -17 362 -15 l367
3 78 190 c43 105 78 196 79 203 0 9 -74 12 -339 12 l-340 0 -100 -187z"/>
<path d="M3247 793 c-42 -104 -79 -196 -83 -205 -6 -17 16 -18 364 -18 l369 0
53 188 c29 103 55 195 58 205 4 16 -17 17 -340 17 l-345 0 -76 -187z"/>
<path d="M3989 779 c-38 -134 -53 -202 -45 -205 6 -2 173 -3 371 -2 l359 3 28
180 c15 99 27 190 28 203 l0 22 -343 0 -342 0 -56 -201z"/>
<path d="M4766 968 c-6 -20 -56 -361 -56 -380 0 -17 24 -18 365 -18 284 0 366
3 370 13 2 6 6 99 10 205 l6 192 -346 0 c-268 0 -346 -3 -349 -12z"/>
<path d="M5485 786 c-4 -107 -4 -199 -1 -205 5 -8 118 -11 372 -11 l364 0 0
24 c0 25 -25 268 -35 344 l-6 42 -344 0 -343 0 -7 -194z"/>
<path d="M6217 973 c-2 -5 6 -96 17 -203 l21 -195 360 -3 c198 -1 365 0 371 2
8 3 -3 68 -35 203 l-47 198 -341 3 c-188 1 -343 -1 -346 -5z"/>
<path d="M6940 970 c0 -6 20 -96 45 -201 25 -105 45 -193 45 -195 0 -2 167 -4
371 -4 293 0 370 3 367 13 -3 6 -36 99 -74 204 l-69 193 -342 0 c-222 0 -343
-4 -343 -10z"/>
<path d="M7660 978 c0 -2 33 -93 73 -203 l73 -200 367 -3 c241 -1 367 1 367 8
0 5 -44 98 -97 205 l-98 195 -342 0 c-189 0 -343 -1 -343 -2z"/>
<path d="M8390 973 c0 -5 43 -97 97 -205 l97 -198 363 0 c232 0 363 4 363 10
0 5 -54 98 -121 205 l-121 195 -339 0 c-186 0 -339 -3 -339 -7z"/>
<path d="M1408 272 l-178 -267 403 -3 c374 -2 403 -1 415 15 12 17 -7 18 -383
21 -310 2 -396 5 -392 15 3 9 97 13 404 15 l400 2 82 153 c44 83 101 189 125
235 l45 82 -372 0 -372 -1 -177 -267z"/>
<path d="M2281 382 c-46 -86 -104 -193 -127 -237 l-43 -80 404 3 c223 1 405 4
405 6 0 1 42 107 94 234 l95 232 -372 0 -372 0 -84 -158z"/>
<path d="M3051 313 c-51 -126 -95 -232 -97 -238 -3 -7 134 -10 398 -10 l403 0
43 150 c23 83 53 189 66 238 l25 87 -373 0 -373 0 -92 -227z"/>
<path d="M3909 498 c-6 -24 -35 -130 -65 -235 -30 -106 -54 -194 -54 -195 0
-2 180 -2 400 0 318 2 400 0 401 -10 0 -7 16 84 34 202 19 118 36 230 39 248
l5 32 -374 0 -374 0 -12 -42z"/>
<path d="M4700 537 c0 -2 -16 -106 -35 -231 -19 -126 -35 -231 -35 -235 0 -3
180 -5 400 -3 353 2 400 1 400 -13 0 -13 -49 -15 -405 -15 -398 0 -405 0 -405
-20 0 -20 7 -20 410 -20 l410 0 0 163 c0 90 3 212 7 270 l6 107 -376 0 c-208
0 -377 -1 -377 -3z"/>
<path d="M5477 403 c-4 -75 -7 -196 -7 -270 l0 -133 405 0 c391 0 405 1 405
19 0 10 -11 126 -25 257 -14 131 -25 244 -25 251 0 10 -74 13 -373 13 l-374 0
-6 -137z m793 -348 c0 -13 -51 -15 -395 -15 -344 0 -395 2 -395 15 0 13 51 15
395 15 344 0 395 -2 395 -15z"/>
<path d="M6263 498 c3 -24 16 -145 28 -270 l23 -228 409 0 c399 0 409 0 404
19 -2 11 -31 132 -63 270 l-58 251 -374 0 -375 0 6 -42z m847 -443 c0 -13 -51
-15 -395 -15 -344 0 -395 2 -395 15 0 13 51 15 395 15 344 0 395 -2 395 -15z"/>
<path d="M7043 521 c2 -11 31 -132 63 -270 l58 -251 407 0 c402 0 407 0 402
20 -5 20 -14 20 -409 20 -352 0 -404 2 -404 15 0 13 50 15 394 15 259 0 396
-4 399 -10 14 -28 -5 28 -83 244 l-85 236 -374 0 c-363 0 -373 -1 -368 -19z"/>
<path d="M7822 531 c2 -5 41 -115 88 -245 47 -130 87 -231 88 -226 2 6 148 10
398 10 217 0 394 2 394 5 0 3 -52 109 -115 235 l-115 230 -371 0 c-221 0 -369
-4 -367 -9z"/>
<path d="M8654 428 c29 -62 82 -169 117 -238 l64 -125 397 5 396 5 -142 230
-143 230 -371 3 -371 2 53 -112z"/>
<path d="M2900 51 c0 -9 -98 -11 -402 -11 -404 1 -417 0 -418 -32 0 -5 182 -8
403 -8 l404 0 12 26 c6 15 9 29 6 32 -3 3 -5 0 -5 -7z"/>
<path d="M9635 52 c5 -10 -72 -12 -393 -10 l-399 3 10 -22 10 -23 404 0 c221
0 403 3 403 8 0 4 -10 18 -21 32 -11 14 -18 19 -14 12z"/>
<path d="M2935 32 c-3 -8 -5 -18 -5 -23 0 -5 166 -9 405 -9 239 0 405 4 405 9
0 5 2 15 5 23 4 11 -67 13 -400 13 -328 0 -406 -3 -410 -13z"/>
<path d="M3780 38 c0 -3 -3 -13 -6 -22 -6 -14 34 -16 405 -16 403 0 411 0 411
20 0 19 -9 20 -405 22 -223 2 -405 0 -405 -4z"/>
<path d="M8004 24 c3 -9 6 -18 6 -20 0 -2 183 -4 406 -4 366 0 406 2 400 16
-3 9 -6 18 -6 20 0 2 -183 4 -406 4 -366 0 -406 -2 -400 -16z"/>
</g>
</svg>
