<?xml version="1.0" standalone="no"?>
<!DOCTYPE svg PUBLIC "-//W3C//DTD SVG 20010904//EN"
 "http://www.w3.org/TR/2001/REC-SVG-20010904/DTD/svg10.dtd">
<svg version="1.0" xmlns="http://www.w3.org/2000/svg"
 width="1000.000000pt" height="150.000000pt" viewBox="0 0 1000.000000 150.000000"
 preserveAspectRatio="xMidYMid meet">

<g transform="translate(0.000000,150.000000) scale(0.100000,-0.100000)"
fill="#000000" stroke="none">
<path d="M0 750 l0 -750 420 0 c273 0 420 3 420 10 0 6 -1 11 -2 12 -2 0 -175
4 -385 7 -210 3 -385 10 -389 14 -23 22 49 27 424 27 l403 0 103 158 c135 206
132 200 104 206 -13 3 -175 7 -360 8 -185 2 -340 6 -344 11 -4 4 -3 11 2 17 5
5 182 12 393 16 l384 7 99 151 99 151 -338 8 c-186 4 -344 10 -352 13 -11 4
-12 7 -2 17 9 9 108 13 372 17 l361 5 83 125 82 125 -311 8 c-186 6 -316 13
-324 19 -9 8 -9 14 -1 24 9 11 75 14 344 14 l333 0 44 62 c73 104 111 168 104
176 -4 3 -137 8 -295 10 -271 4 -327 9 -307 29 4 4 153 9 332 11 310 3 324 4
334 22 11 20 1 20 -910 20 l-920 0 0 -750z"/>
<path d="M1880 1480 c-11 -20 -8 -20 227 -19 275 2 375 9 381 27 3 9 -61 12
-297 12 -290 0 -301 -1 -311 -20z"/>
<path d="M2542 1488 c-7 -7 -12 -16 -12 -20 0 -9 441 -9 544 1 42 4 71 11 74
19 5 17 -588 18 -606 0z"/>
<path d="M3197 1486 c-8 -21 57 -26 344 -26 252 0 259 1 259 20 0 20 -7 20
-299 20 -244 0 -300 -3 -304 -14z"/>
<path d="M3850 1486 c0 -8 7 -17 16 -20 9 -3 146 -6 305 -6 282 0 289 0 289
20 0 20 -7 20 -305 20 -254 0 -305 -2 -305 -14z"/>
<path d="M4507 1493 c-4 -3 -7 -12 -7 -20 0 -10 58 -13 305 -13 298 0 305 0
305 20 0 20 -7 20 -298 20 -164 0 -302 -3 -305 -7z"/>
<path d="M5170 1480 c0 -20 7 -20 300 -20 293 0 300 0 300 20 0 20 -7 20 -300
20 -293 0 -300 0 -300 -20z"/>
<path d="M5817 1480 c5 -19 14 -20 287 -20 154 0 291 3 304 6 12 4 22 13 22
20 0 12 -53 14 -309 14 -304 0 -309 0 -304 -20z"/>
<path d="M6474 1484 c3 -9 6 -18 6 -20 0 -6 521 -4 563 2 22 4 37 12 37 20 0
12 -54 14 -306 14 -275 0 -306 -2 -300 -16z"/>
<path d="M7132 1488 c3 -7 22 -16 44 -21 42 -9 550 -4 560 6 23 23 -25 27
-307 27 -232 0 -300 -3 -297 -12z"/>
<path d="M7790 1480 c10 -19 21 -20 311 -20 271 0 301 2 295 16 -3 9 -6 18 -6
20 0 2 -137 4 -305 4 -303 0 -306 0 -295 -20z"/>
<path d="M8444 1484 c3 -9 6 -18 6 -20 0 -2 138 -4 308 -4 310 0 356 -3 349
-24 -2 -8 -91 -13 -288 -17 -156 -3 -292 -7 -302 -8 -16 -1 -17 -3 -1 -33 9
-18 39 -70 66 -114 l51 -81 335 -8 c184 -4 341 -9 349 -12 18 -7 16 -30 -3
-37 -9 -3 -136 -6 -282 -7 -147 0 -286 -4 -309 -7 l-42 -7 77 -125 78 -125
356 -5 c196 -3 360 -8 364 -13 21 -21 -36 -26 -331 -32 -176 -4 -326 -8 -333
-11 -16 -5 -3 -32 94 -185 l74 -116 380 -5 c367 -5 426 -10 388 -34 -7 -5
-169 -11 -360 -14 -190 -3 -349 -8 -353 -12 -7 -7 56 -122 148 -268 l54 -85
341 -3 342 -2 0 715 0 715 -781 0 c-708 0 -781 -1 -775 -16z"/>
<path d="M1763 1305 c-42 -63 -73 -118 -69 -123 4 -4 147 -7 318 -7 l310 0 60
115 61 115 -64 6 c-35 4 -171 7 -301 8 l-238 1 -77 -115z"/>
<path d="M2442 1301 l-62 -118 68 -6 c37 -4 180 -7 318 -7 l252 0 17 43 c9 23
30 76 45 118 l28 76 -75 7 c-42 3 -178 6 -303 6 l-226 0 -62 -119z"/>
<path d="M3149 1373 c-46 -106 -80 -196 -75 -200 2 -3 148 -2 324 2 l320 8 26
97 c14 53 26 104 26 112 0 22 -68 28 -353 28 l-248 0 -20 -47z"/>
<path d="M3816 1368 c-40 -140 -49 -179 -42 -185 4 -4 148 -9 320 -11 l313 -4
17 98 c9 55 18 109 20 120 2 20 -3 22 -78 28 -45 3 -183 6 -308 6 l-227 0 -15
-52z"/>
<path d="M4550 1411 l-55 -6 -17 -95 c-9 -52 -17 -105 -17 -117 l-1 -23 325 0
325 0 0 125 0 125 -252 -2 c-139 -1 -278 -4 -308 -7z"/>
<path d="M5834 1324 c11 -148 6 -140 84 -148 87 -8 398 -8 495 0 67 6 77 10
77 26 0 24 -41 191 -49 199 -3 4 -143 10 -310 14 l-304 7 7 -98z"/>
<path d="M6494 1398 c3 -13 16 -69 28 -125 l21 -103 324 0 c178 0 323 4 323 8
0 5 -18 58 -39 118 l-39 109 -43 7 c-24 3 -165 7 -313 7 l-268 1 6 -22z"/>
<path d="M7213 1413 c-54 -5 -54 -8 -6 -141 l36 -104 313 4 c172 1 315 6 319
9 3 4 -20 59 -52 123 l-58 116 -255 -2 c-140 -1 -274 -3 -297 -5z"/>
<path d="M7867 1411 l-37 -6 53 -115 53 -115 323 -3 c177 -1 321 1 319 6 -1 5
-34 61 -73 125 l-70 116 -265 -1 c-146 0 -282 -4 -303 -7z"/>
<path d="M5156 1373 c-3 -21 -6 -75 -6 -120 l0 -83 326 0 327 0 -7 73 c-3 39
-9 93 -12 120 l-7 47 -307 0 -307 0 -7 -37z"/>
<path d="M1555 992 c-47 -71 -85 -132 -85 -136 0 -3 153 -6 339 -6 l339 0 67
126 c37 69 64 129 60 132 -4 4 -148 9 -320 10 l-314 4 -86 -130z"/>
<path d="M2277 995 c-37 -68 -67 -129 -67 -135 0 -7 111 -10 338 -10 l338 0
47 118 c25 64 49 125 53 135 6 16 -14 17 -318 17 l-325 0 -66 -125z"/>
<path d="M2993 993 c-28 -71 -48 -131 -44 -136 4 -4 157 -6 341 -5 l334 3 36
125 37 125 -81 7 c-45 3 -192 6 -327 7 l-246 1 -50 -127z"/>
<path d="M3747 1113 c-3 -5 -19 -60 -37 -123 -18 -63 -35 -121 -37 -127 -4
-10 68 -13 340 -13 l346 0 10 53 c11 54 30 183 31 205 0 9 -71 12 -324 12
-179 0 -327 -3 -329 -7z"/>
<path d="M4505 1111 l-60 -6 -17 -110 c-9 -60 -17 -118 -17 -127 -1 -17 22
-18 338 -18 187 0 342 3 344 8 3 4 8 64 12 135 l7 127 -273 -2 c-151 -1 -301
-4 -334 -7z"/>
<path d="M5150 1023 c0 -54 -3 -115 -6 -135 l-7 -38 352 0 352 0 -5 33 c-3 17
-10 78 -17 135 l-11 102 -329 0 -329 0 0 -97z"/>
<path d="M5854 1099 c6 -25 26 -207 26 -234 0 -13 41 -15 339 -15 187 0 342 4
345 9 3 5 -7 63 -22 130 l-27 121 -100 0 c-55 0 -205 3 -333 7 l-233 6 5 -24z"/>
<path d="M6623 1113 c-45 -3 -53 -7 -53 -24 0 -18 34 -182 46 -221 5 -17 30
-18 339 -18 225 0 336 3 340 11 4 6 -12 66 -36 135 l-43 124 -271 -2 c-148 -1
-294 -3 -322 -5z"/>
<path d="M7303 1113 c-18 -2 -33 -7 -33 -11 0 -13 83 -227 92 -239 13 -16 678
-19 678 -3 0 5 -28 66 -62 135 l-63 125 -290 -2 c-159 0 -305 -3 -322 -5z"/>
<path d="M7970 1115 c0 -3 29 -64 65 -135 l65 -130 341 0 c187 0 339 4 337 8
-1 4 -38 65 -81 135 l-79 127 -324 0 c-178 0 -324 -2 -324 -5z"/>
<path d="M1330 654 c-52 -81 -96 -150 -98 -155 -2 -5 153 -9 360 -9 l364 0 77
148 c42 82 74 152 70 155 -3 4 -157 7 -342 7 l-336 0 -95 -146z"/>
<path d="M2174 792 c-10 -6 -164 -285 -164 -297 0 -3 164 -5 364 -5 l364 0 61
149 c33 83 61 152 61 155 0 9 -673 7 -686 -2z"/>
<path d="M2870 693 c-23 -60 -51 -129 -61 -156 l-19 -47 367 2 367 3 37 130
c21 72 38 140 38 153 l1 22 -343 0 -344 0 -43 -107z"/>
<path d="M3639 728 c-54 -182 -66 -228 -61 -233 3 -3 168 -5 367 -5 l363 0 15
108 c9 59 19 128 23 155 l6 47 -345 0 -346 0 -22 -72z"/>
<path d="M4390 733 c-6 -38 -17 -107 -24 -155 l-13 -88 374 0 373 0 0 155 0
155 -349 0 -349 0 -12 -67z"/>
<path d="M5146 784 c-3 -9 -6 -78 -6 -155 l0 -139 365 0 365 0 0 38 c0 37 -15
176 -25 240 l-6 32 -343 0 c-304 0 -345 -2 -350 -16z"/>
<path d="M5890 785 c0 -18 17 -190 26 -252 l5 -43 365 0 364 0 -1 28 c0 15
-15 83 -32 152 l-32 125 -347 3 c-309 2 -348 1 -348 -13z"/>
<path d="M6640 790 c0 -6 14 -76 31 -155 l32 -145 369 0 c292 0 369 3 366 13
-3 6 -29 76 -58 155 l-52 142 -344 0 c-230 0 -344 -3 -344 -10z"/>
<path d="M7390 786 c0 -18 90 -278 99 -289 4 -4 170 -6 370 -5 l362 3 -75 153
-76 152 -340 0 c-289 0 -340 -2 -340 -14z"/>
<path d="M8130 795 c0 -2 32 -72 72 -155 l71 -150 364 0 c199 0 363 3 363 6 0
3 -42 73 -92 155 l-93 149 -342 0 c-189 0 -343 -2 -343 -5z"/>
<path d="M1074 264 c-63 -97 -112 -179 -109 -183 4 -3 178 -6 387 -6 l380 0
94 175 c51 96 94 178 94 183 0 4 -164 7 -365 7 l-365 0 -116 -176z"/>
<path d="M1973 428 c-6 -7 -41 -71 -78 -143 -37 -72 -79 -149 -92 -172 l-25
-43 395 0 395 0 71 178 c62 156 68 178 53 184 -9 4 -173 7 -363 7 -266 1 -349
-2 -356 -11z"/>
<path d="M2695 264 c-38 -97 -71 -180 -73 -185 -2 -5 166 -9 391 -9 l394 0 47
173 c25 95 46 178 46 185 0 9 -82 12 -367 12 l-368 0 -70 -176z"/>
<path d="M3537 363 c-50 -159 -80 -274 -73 -281 4 -4 182 -9 394 -10 l387 -4
24 164 c12 89 25 173 28 186 l5 22 -370 0 -371 0 -24 -77z"/>
<path d="M4358 428 c-11 -9 -24 -62 -42 -177 -14 -91 -23 -167 -20 -170 3 -4
181 -7 395 -9 l389 -4 0 186 0 186 -353 0 c-267 0 -357 -3 -369 -12z"/>
<path d="M5136 403 c-3 -21 -6 -104 -6 -185 l0 -148 395 0 c217 0 395 2 395 4
0 24 -42 351 -46 358 -3 4 -169 8 -368 8 l-363 0 -7 -37z"/>
<path d="M5935 430 c-4 -7 1 -87 10 -180 16 -156 19 -169 39 -174 11 -3 189
-6 394 -6 348 0 372 1 372 18 -1 26 -76 331 -84 340 -13 12 -723 14 -731 2z"/>
<path d="M6732 397 c3 -24 20 -107 38 -185 l33 -142 394 0 c216 0 393 3 393 8
0 4 -29 86 -64 182 l-64 175 -367 3 -368 2 5 -43z"/>
<path d="M7531 431 c-12 -8 -4 -38 45 -178 l60 -168 59 -6 c80 -9 629 -9 682
-1 l42 7 -82 175 -83 175 -354 2 c-201 2 -361 -1 -369 -6z"/>
<path d="M8310 431 c0 -5 39 -88 86 -185 l86 -176 322 0 c363 0 450 5 442 27
-3 8 -51 88 -107 179 l-101 164 -364 0 c-202 0 -364 -4 -364 -9z"/>
<path d="M906 15 c-5 -13 43 -15 389 -15 217 0 395 4 395 9 0 16 -96 21 -435
21 -296 0 -344 -2 -349 -15z"/>
<path d="M1757 23 c-4 -3 -7 -10 -7 -15 0 -4 178 -8 396 -8 312 0 395 3 392
12 -4 10 -92 14 -390 16 -211 1 -387 -1 -391 -5z"/>
<path d="M2630 23 c-14 -3 -29 -9 -34 -14 -6 -5 147 -9 387 -9 361 0 454 6
366 24 -35 7 -680 6 -719 -1z"/>
<path d="M3465 23 c-75 -18 0 -23 363 -23 366 0 467 7 365 24 -44 7 -698 6
-728 -1z"/>
<path d="M4308 23 c-16 -2 -28 -9 -28 -14 0 -5 159 -9 400 -9 368 0 480 8 348
24 -57 6 -675 6 -720 -1z"/>
<path d="M5130 15 c0 -13 46 -15 402 -15 322 0 400 3 390 12 -10 10 -107 14
-402 16 -346 3 -390 1 -390 -13z"/>
<path d="M5987 23 c-4 -3 -7 -10 -7 -15 0 -4 178 -8 395 -8 372 0 492 9 318
24 -100 8 -698 8 -706 -1z"/>
<path d="M6838 23 c-10 -2 -18 -9 -18 -14 0 -5 161 -9 400 -9 351 0 399 2 394
15 -5 13 -56 15 -383 14 -207 -1 -384 -3 -393 -6z"/>
<path d="M7703 23 c-18 -2 -33 -8 -33 -14 0 -5 156 -9 396 -9 312 0 395 3 392
12 -4 10 -86 13 -364 14 -197 0 -374 -1 -391 -3z"/>
<path d="M8527 23 c-9 -2 -15 -9 -12 -14 4 -5 169 -9 398 -9 313 0 389 3 379
12 -10 10 -101 13 -380 15 -202 1 -375 -1 -385 -4z"/>
<path d="M9373 23 c-46 -18 19 -23 307 -23 278 0 320 2 320 15 0 13 -40 15
-307 14 -170 0 -314 -3 -320 -6z"/>
</g>
</svg>
